<?xml version="1.0" encoding="UTF-8"?>
<svg width="80px" height="66px" viewBox="0 0 80 66" version="1.1" xmlns="http://www.w3.org/2000/svg" xmlns:xlink="http://www.w3.org/1999/xlink">
    <title>Untitled 5</title>
    <g id="Page-1" stroke="none" stroke-width="1" fill="none" fill-rule="evenodd">
        <g id="noun_note_217146" transform="translate(2.000000, 2.000000)" fill="#000000" fill-rule="nonzero">
            <text id="s" font-family="ArcadeClassic" font-size="60" font-weight="normal">
                <tspan x="24" y="52">s</tspan>
            </text>
            <path d="M33.022,53.752 C29.019,53.752 25.686,53.598 22.532,53.267 C18.658,52.861 14.953,52.766 11.031,52.666 C9.919,52.637 8.8,52.609 7.668,52.573 C7.291,52.561 6.915,52.294 6.756,51.952 C6.254,50.872 5.494,40.07 5.162,33.015 C4.307,14.886 5.436,13.464 5.861,12.928 C6.662,11.917 7.718,11.133 9.045,10.571 C10.759,9.844 12.924,9.487 15.574,9.487 C19.175,9.487 23.154,10.135 26.665,10.708 C29.373,11.149 31.932,11.566 33.684,11.566 C36.461,11.543 39.15,11.532 41.839,11.532 C46.625,11.532 51.415,11.569 56.075,11.641 C56.516,11.657 57.038,11.659 57.624,11.661 C60.453,11.672 64.328,11.687 66.599,12.983 C70.37,15.187 67.246,51.194 67.196,51.547 C67.134,51.985 66.791,52.331 66.353,52.396 C61.639,53.1 57.702,53.541 53.516,53.456 C49.597,53.366 45.628,53.479 41.787,53.588 C38.919,53.669 35.952,53.752 33.022,53.752 Z M8.484,50.597 C9.357,50.623 10.221,50.645 11.082,50.667 C15.045,50.768 18.789,50.863 22.741,51.278 C25.824,51.602 29.09,51.753 33.022,51.753 C35.924,51.753 38.876,51.67 41.732,51.589 C45.597,51.48 49.601,51.367 53.563,51.457 C57.395,51.541 61.024,51.154 65.307,50.53 C65.979,44.248 67.322,17.132 65.539,14.681 C63.711,13.685 60.05,13.671 57.618,13.661 C57.007,13.659 56.463,13.657 56.025,13.64 C48.795,13.528 41.249,13.503 33.792,13.565 C33.789,13.565 33.689,13.565 33.687,13.565 C31.772,13.565 29.258,13.155 26.346,12.681 C22.909,12.121 19.015,11.486 15.576,11.486 C13.191,11.486 11.287,11.791 9.831,12.409 C8.815,12.842 8.018,13.428 7.429,14.17 C6.943,14.957 6.57,20.33 7.157,32.831 C7.539,41.007 8.162,48.424 8.484,50.597 Z" id="Shape" stroke="#000000" stroke-width="4"></path>
            <path d="M63.781,18.95 C63.549,18.95 63.323,18.869 63.142,18.72 L59.266,15.505 C58.841,15.152 58.783,14.522 59.135,14.097 L70.32,0.609 C70.489,0.405 70.733,0.276 70.997,0.252 C71.259,0.227 71.524,0.309 71.728,0.478 L75.604,3.693 C76.029,4.046 76.087,4.676 75.735,5.101 L64.551,18.588 C64.382,18.792 64.138,18.921 63.874,18.945 C63.843,18.948 63.812,18.95 63.781,18.95 Z M61.313,14.603 L63.649,16.541 L73.557,4.594 L71.221,2.656" id="Shape" stroke="#000000" stroke-width="4"></path>
            <path d="M12.481,21.199 C12.457,21.199 12.432,21.198 12.408,21.197 C12.143,21.177 11.897,21.053 11.724,20.853 L0.277,7.587 C-0.084,7.169 -0.037,6.538 0.38,6.177 L4.189,2.888 C4.39,2.715 4.655,2.631 4.916,2.647 C5.18,2.667 5.426,2.79 5.6,2.991 L17.052,16.254 C17.225,16.455 17.312,16.716 17.293,16.981 C17.273,17.246 17.149,17.492 16.949,17.665 L13.136,20.956 C12.953,21.113 12.721,21.199 12.481,21.199 Z M4.739,5.055 L2.444,7.037 L12.585,18.788 L14.884,16.804" id="Shape" stroke="#000000" stroke-width="4"></path>
        </g>
    </g>
</svg>