<svg xmlns="http://www.w3.org/2000/svg" xmlns:xlink="http://www.w3.org/1999/xlink" version="1.1" x="0px" y="0px" viewBox="0 0 100 125.00125" enable-background="new 0 0 100 100.001" xml:space="preserve"><polygon points="74,30.001 74,24.001 68,24.001 68,18.001 61.746,18.001 56,18.001 56,24.001 50,24.001 50,36.001 44,36.001   44,30.001 32,30.001 32,24.001 26,24.001 26,48.001 32,48.001 32,54.001 38,54.001 38,60.001 26,60.001 26,66.001 62,66.001   62,60.001 68,60.001 68,54.001 74,54.001 74,36.001 80,36.001 80,30.001 "/><text x="0" y="115.001" fill="#000000" font-size="5px" font-weight="bold" font-family="'Helvetica Neue', Helvetica, Arial-Unicode, Arial, Sans-serif">Created by Miguel C Balandrano</text><text x="0" y="120.001" fill="#000000" font-size="5px" font-weight="bold" font-family="'Helvetica Neue', Helvetica, Arial-Unicode, Arial, Sans-serif">from the Noun Project</text></svg>