<?xml version="1.0" encoding="UTF-8"?>
<svg width="22px" height="23px" viewBox="0 0 22 23" version="1.1" xmlns="http://www.w3.org/2000/svg" xmlns:xlink="http://www.w3.org/1999/xlink">
    <title>Untitled 6</title>
    <defs>
        <filter id="filter-1">
            <feColorMatrix in="SourceGraphic" type="matrix" values="0 0 0 0 1.000000 0 0 0 0 1.000000 0 0 0 0 1.000000 0 0 0 1.000000 0"></feColorMatrix>
        </filter>
    </defs>
    <g id="Page-1" stroke="none" stroke-width="1" fill="none" fill-rule="evenodd">
        <g id="iconmonstr-party-9" fill="#000000">
            <path d="M22,11.019 C22,11.283 21.978,11.54 21.96,11.799 C21.828,11.766 21.503,11.685 21.066,11.778 C20.771,11.292 20.216,10.979 19.563,10.979 C18.878,10.979 18.293,11.33 18.015,11.864 C17.069,11.694 15.917,12.282 15.917,13.457 L15.917,16.218 C15.23,15.498 13.001,15.842 13.001,17.628 C13.001,17.903 13.063,18.177 13.186,18.448 C13.252,18.606 14.579,21.253 14.653,21.403 C13.509,21.807 12.283,22.038 11.001,22.038 C4.926,22.038 1.77635684e-15,17.105 1.77635684e-15,11.019 C1.77635684e-15,4.934 4.926,0 11,0 C17.074,0 22,4.934 22,11.019" id="Shape"></path>
        </g>
        <circle id="Oval" fill="#000000" cx="11" cy="11" r="11"></circle>
        <g filter="url(#filter-1)" id="Group">
            <g transform="translate(2.361111, 1.000000)">
                <path d="M1.71427337,3.48342003 L2.28597554,5 C2.41018938,4.97074122 2.54077317,4.95611183 2.67294944,4.95611183 L14.7344321,4.95611183 C14.8252038,4.95611183 14.9143829,4.96261378 15.0019696,4.97561769 L15.5641169,3.48342003 C15.5720793,3.46391417 15.5784492,3.44440832 15.5816342,3.42490247 C15.7217729,3.04941482 15.6023365,2.59915475 15.2488048,2.19440832 C15.2360649,2.17977893 15.2217326,2.16514954 15.2058077,2.15052016 C13.7168341,0.833875163 11.3026266,0.0308842653 8.74031793,0.00162548765 C8.72757804,0.00162548765 8.71643065,0 8.70369077,0 L8.5715145,0 C8.55718213,0 8.54125728,0.00162548765 8.52692491,0.00162548765 C5.96939373,0.0325097529 3.55837119,0.83550065 2.07258253,2.15052016 C2.05665768,2.16514954 2.04232531,2.17977893 2.02958543,2.19440832 C1.67605372,2.59915475 1.55661733,3.04778934 1.69516354,3.42327698 C1.699941,3.44278283 1.70631094,3.46391417 1.71427337,3.48342003 Z M7.23590381,2.60201511 C7.56625207,2.60201511 7.83291874,2.82871537 7.83291874,3.10579345 C7.83291874,3.28043661 7.91451078,3.43828715 8.04187396,3.55919395 L8.04187396,2.5163728 L7.60406302,2.5163728 C7.27570481,2.5163728 7.00704809,2.29135181 7.00704809,2.01259446 C7.00704809,1.73383711 7.27570481,1.50881612 7.60406302,1.50881612 L8.04187396,1.50881612 L8.04187396,1.50377834 C8.04187396,1.22502099 8.31053068,1 8.63888889,1 C8.96923715,1 9.23590381,1.22502099 9.23590381,1.50377834 L9.23590381,1.50881612 L9.67371476,1.50881612 C10.004063,1.50881612 10.2707297,1.73383711 10.2707297,2.01259446 C10.2707297,2.29135181 10.004063,2.5163728 9.67371476,2.5163728 L9.23590381,2.5163728 L9.23590381,3.55919395 C9.36525705,3.43828715 9.44485904,3.28043661 9.44485904,3.10579345 C9.44485904,2.82871537 9.71351575,2.60201511 10.041874,2.60201511 C10.3722222,2.60201511 10.6388889,2.82871537 10.6388889,3.10579345 C10.6388889,3.88329135 10.0120232,4.53820319 9.16227197,4.73299748 C9.06276949,4.89084803 8.86774461,5 8.63888889,5 C8.41202322,5 8.21699834,4.89084803 8.1155058,4.73299748 C7.26575456,4.53820319 6.63888889,3.88329135 6.63888889,3.10579345 C6.63888889,2.82871537 6.90754561,2.60201511 7.23590381,2.60201511 Z" id="Shape" fill="#000000" fill-rule="nonzero"></path>
                <path d="M16.6116023,6.08790135 L16.4952968,5.71403865 C16.3684976,5.30694037 15.8382144,5 15.2617588,5 L14.1175924,5 L2.97027748,5 L2.01622249,5 C1.43941711,5 0.909133937,5.30709076 0.782684486,5.71388826 L0.666204078,6.08775096 C0.594846712,6.31709151 0.664804914,6.54898865 0.85841424,6.72418979 C1.05202357,6.89954132 1.34952082,7 1.67430178,7 L2.68257437,7 L14.4049457,7 L15.6033297,7 C15.9282856,7 16.2256079,6.89954132 16.4192173,6.72418979 C16.6128266,6.54898865 16.6829597,6.31709151 16.6116023,6.08790135 Z" id="Path" fill="#000000" fill-rule="nonzero"></path>
                <path d="M1.98637016,8 C1.75608672,8.73460569 1.63888889,9.50810227 1.63888889,10.2859201 C1.63888889,12.260713 2.40170281,14.1577242 3.73816925,15.5361901 L3.73816925,16.3399352 C3.73816925,17.757292 4.50920758,18.9888369 5.6338955,19.5959669 L5.6338955,16.6294562 C5.6338955,16.2707958 5.90941319,15.9812748 6.25072616,15.9812748 C6.58998303,15.9812748 6.86755683,16.2707958 6.86755683,16.6294562 L6.86755683,19.9805546 C6.98475465,19.9935182 7.10195248,20 7.22120641,20 L8.02103017,20 L8.02103017,16.6294562 C8.02103017,16.2707958 8.29860397,15.9812748 8.63786084,15.9812748 C8.97917381,15.9812748 9.2546915,16.2707958 9.2546915,16.6294562 L9.2546915,20 L10.0565714,20 C10.1758253,20 10.2930231,19.9935182 10.4102209,19.9805546 L10.4102209,16.6294562 C10.4102209,16.2707958 10.6857386,15.9812748 11.0270516,15.9812748 C11.3683646,15.9812748 11.6438823,16.2707958 11.6438823,16.6294562 L11.6438823,19.5959669 C12.7685702,18.9888369 13.5396085,17.757292 13.5396085,16.3399352 L13.5396085,15.5361901 C14.876075,14.1577242 15.6388889,12.260713 15.6388889,10.2859201 C15.6388889,9.50810227 15.5216911,8.73460569 15.2914076,8 L1.98637016,8 Z M6.30654342,11.2727273 C5.66245649,11.2727273 5.13888889,10.7831576 5.13888889,10.1827419 C5.13888889,9.58047879 5.66245649,9.09090909 6.30654342,9.09090909 C6.94865462,9.09090909 7.47222222,9.58047879 7.47222222,10.1827419 C7.47222222,10.7831576 6.94865462,11.2727273 6.30654342,11.2727273 Z M10.9712344,11.2727273 C10.3291232,11.2727273 9.80555556,10.7831576 9.80555556,10.1827419 C9.80555556,9.58047879 10.3291232,9.09090909 10.9712344,9.09090909 C11.6153213,9.09090909 12.1388889,9.58047879 12.1388889,10.1827419 C12.1388889,10.7831576 11.6153213,11.2727273 10.9712344,11.2727273 Z" id="Shape" fill="#000000" fill-rule="nonzero"></path>
            </g>
        </g>
    </g>
</svg>