<svg xmlns="http://www.w3.org/2000/svg" xmlns:xlink="http://www.w3.org/1999/xlink" version="1.1" x="0px" y="0px" viewBox="0 0 110 137.5" enable-background="new 0 0 110 110" xml:space="preserve"><g><g><path d="M11.51,23.76l3.59,9.33c0.78-0.18,1.6-0.27,2.43-0.27h75.74c0.57,0,1.13,0.04,1.68,0.12l3.53-9.18    c0.05-0.12,0.09-0.24,0.11-0.36c0.88-2.31,0.13-5.08-2.09-7.57c-0.08-0.09-0.17-0.18-0.27-0.27c-9.35-8.1-24.51-13.04-40.6-13.22    c-0.08,0-0.15-0.01-0.23-0.01h-0.83c-0.09,0-0.19,0.01-0.28,0.01c-16.06,0.19-31.2,5.13-40.53,13.22    c-0.1,0.09-0.19,0.18-0.27,0.27c-2.22,2.49-2.97,5.25-2.1,7.56C11.42,23.51,11.46,23.64,11.51,23.76z M47.92,16.81    c1.66,0,3,1.35,3,3c0,1.04,0.41,1.98,1.05,2.7V16.3h-2.2c-1.65,0-3-1.34-3-3c0-1.66,1.35-3,3-3h2.2v-0.03c0-1.66,1.35-3,3-3    c1.66,0,3,1.34,3,3v0.03h2.2c1.66,0,3,1.34,3,3c0,1.66-1.34,3-3,3h-2.2v6.21c0.65-0.72,1.05-1.66,1.05-2.7c0-1.65,1.35-3,3-3    c1.66,0,3,1.35,3,3c0,4.63-3.15,8.53-7.42,9.69c-0.5,0.94-1.48,1.59-2.63,1.59c-1.14,0-2.12-0.65-2.63-1.59    c-4.27-1.16-7.42-5.06-7.42-9.69C44.92,18.16,46.27,16.81,47.92,16.81z"/><path d="M100.985,43.052l-0.665-2.486c-0.725-2.707-3.757-4.748-7.053-4.748h-6.542H22.988h-5.455    c-3.298,0-6.33,2.042-7.053,4.747l-0.666,2.486c-0.408,1.525-0.008,3.067,1.099,4.232c1.107,1.166,2.808,1.834,4.665,1.834h5.765    h67.025h6.852c1.858,0,3.558-0.668,4.665-1.834C100.992,46.118,101.393,44.576,100.985,43.052z"/><path d="M22.64,52.12c-1.12,3.4-1.69,6.98-1.69,10.58c0,9.14,3.71,17.92,10.21,24.3v3.72c0,6.56,3.75,12.26,9.22,15.07V92.06    c0-1.66,1.34-3,3-3c1.65,0,3,1.34,3,3v15.51c0.57,0.06,1.14,0.09,1.72,0.09h3.89v-15.6c0-1.66,1.35-3,3-3c1.66,0,3,1.34,3,3v15.6    h3.9c0.58,0,1.15-0.03,1.72-0.09V92.06c0-1.66,1.34-3,3-3c1.66,0,3,1.34,3,3v13.73c5.47-2.81,9.22-8.51,9.22-15.07V87    c6.5-6.38,10.21-15.16,10.21-24.3c0-3.6-0.57-7.18-1.69-10.58H22.64z M41.64,69.11c-3.26,0-5.91-2.65-5.91-5.9    c0-3.26,2.65-5.91,5.91-5.91c3.25,0,5.9,2.65,5.9,5.91C47.54,66.46,44.89,69.11,41.64,69.11z M68.35,69.11    c-3.25,0-5.9-2.65-5.9-5.9c0-3.26,2.65-5.91,5.9-5.91c3.26,0,5.91,2.65,5.91,5.91C74.26,66.46,71.61,69.11,68.35,69.11z"/></g></g><text x="0" y="125" fill="#000000" font-size="5px" font-weight="bold" font-family="'Helvetica Neue', Helvetica, Arial-Unicode, Arial, Sans-serif">Created by Pixelicatom</text><text x="0" y="130" fill="#000000" font-size="5px" font-weight="bold" font-family="'Helvetica Neue', Helvetica, Arial-Unicode, Arial, Sans-serif">from the Noun Project</text></svg>