<svg xmlns="http://www.w3.org/2000/svg" xmlns:xlink="http://www.w3.org/1999/xlink" version="1.1" x="0px" y="0px" viewBox="0 0 100 125" enable-background="new 0 0 100 100" xml:space="preserve"><g><g><path fill="#000000" d="M45.022,76.752c-4.003,0-7.336-0.154-10.49-0.485c-3.874-0.406-7.579-0.501-11.501-0.601    c-1.112-0.029-2.231-0.057-3.363-0.093c-0.377-0.012-0.753-0.279-0.912-0.621c-0.502-1.08-1.262-11.882-1.594-18.937    c-0.855-18.129,0.274-19.551,0.699-20.087c0.801-1.011,1.857-1.795,3.184-2.357c1.714-0.727,3.879-1.084,6.529-1.084    c3.601,0,7.58,0.648,11.091,1.221c2.708,0.441,5.267,0.858,7.019,0.858c2.777-0.023,5.466-0.034,8.155-0.034    c4.786,0,9.576,0.037,14.236,0.109c0.441,0.016,0.963,0.018,1.549,0.02c2.829,0.011,6.704,0.026,8.975,1.322    c3.771,2.204,0.647,38.211,0.597,38.564c-0.062,0.438-0.405,0.784-0.843,0.849c-4.714,0.704-8.651,1.145-12.837,1.06    c-3.919-0.09-7.888,0.023-11.729,0.132C50.919,76.669,47.952,76.752,45.022,76.752z M20.484,73.597    c0.873,0.026,1.737,0.048,2.598,0.07c3.963,0.101,7.707,0.196,11.659,0.611c3.083,0.324,6.349,0.475,10.281,0.475    c2.902,0,5.854-0.083,8.71-0.164c3.865-0.109,7.869-0.222,11.831-0.132c3.832,0.084,7.461-0.303,11.744-0.927    c0.672-6.282,2.015-33.398,0.232-35.849c-1.828-0.996-5.489-1.01-7.921-1.02c-0.611-0.002-1.155-0.004-1.593-0.021    c-7.23-0.112-14.776-0.137-22.233-0.075c-0.003,0-0.103,0-0.105,0c-1.915,0-4.429-0.41-7.341-0.884    c-3.437-0.56-7.331-1.195-10.77-1.195c-2.385,0-4.289,0.305-5.745,0.923c-1.016,0.433-1.813,1.019-2.402,1.761    c-0.486,0.787-0.859,6.16-0.272,18.661C19.539,64.007,20.162,71.424,20.484,73.597z"/></g></g><g><g><path fill="#000000" d="M75.781,41.95c-0.232,0-0.458-0.081-0.639-0.23l-3.876-3.215c-0.425-0.353-0.483-0.983-0.131-1.408    L82.32,23.609c0.169-0.204,0.413-0.333,0.677-0.357c0.262-0.025,0.527,0.057,0.731,0.226l3.876,3.215    c0.425,0.353,0.483,0.983,0.131,1.408L76.551,41.588c-0.169,0.204-0.413,0.333-0.677,0.357    C75.843,41.948,75.812,41.95,75.781,41.95z M73.313,37.603l2.336,1.938l9.908-11.947l-2.336-1.938"/></g></g><g><g><path fill="#000000" d="M24.481,44.199c-0.024,0-0.049-0.001-0.073-0.002c-0.265-0.02-0.511-0.144-0.684-0.344L12.277,30.587    c-0.361-0.418-0.314-1.049,0.103-1.41l3.809-3.289c0.201-0.173,0.466-0.257,0.727-0.241c0.264,0.02,0.51,0.143,0.684,0.344    l11.452,13.263c0.173,0.201,0.26,0.462,0.241,0.727c-0.02,0.265-0.144,0.511-0.344,0.684l-3.813,3.291    C24.953,44.113,24.721,44.199,24.481,44.199z M16.739,28.055l-2.295,1.982l10.141,11.751l2.299-1.984"/></g></g><text x="0" y="115" fill="#000000" font-size="5px" font-weight="bold" font-family="'Helvetica Neue', Helvetica, Arial-Unicode, Arial, Sans-serif">Created by Michael Rojas</text><text x="0" y="120" fill="#000000" font-size="5px" font-weight="bold" font-family="'Helvetica Neue', Helvetica, Arial-Unicode, Arial, Sans-serif">from the Noun Project</text></svg>